<svg width="213" height="191" viewBox="0 0 213 191" fill="none" xmlns="http://www.w3.org/2000/svg">
<path fill-rule="evenodd" clip-rule="evenodd" d="M69.1562 39.2188C69.1562 18.5944 85.8756 1.875 106.5 1.875C127.124 1.875 143.844 18.5944 143.844 39.2188C143.844 59.8431 127.124 76.5625 106.5 76.5625C85.8756 76.5625 69.1562 59.8431 69.1562 39.2188Z" fill="white" fill-opacity="0.1"/>
<path fill-rule="evenodd" clip-rule="evenodd" d="M143.844 69.0938C143.844 52.5942 157.219 39.2188 173.719 39.2188C190.218 39.2188 203.594 52.5942 203.594 69.0938C203.594 85.5933 190.218 98.9688 173.719 98.9688C157.219 98.9688 143.844 85.5933 143.844 69.0938Z" fill="white" fill-opacity="0.1"/>
<path fill-rule="evenodd" clip-rule="evenodd" d="M9.40625 69.0938C9.40625 52.5942 22.7817 39.2188 39.2812 39.2188C55.7808 39.2188 69.1562 52.5942 69.1562 69.0938C69.1562 85.5933 55.7808 98.9688 39.2812 98.9688C22.7817 98.9688 9.40625 85.5933 9.40625 69.0938Z" fill="white" fill-opacity="0.1"/>
<path fill-rule="evenodd" clip-rule="evenodd" d="M49.8357 122.545C61.7655 103.892 82.6831 91.5 106.5 91.5C130.32 91.5 151.24 103.895 163.169 122.552C171.416 135.45 174.984 151.003 173.31 166.167C173.049 168.537 171.671 170.639 169.603 171.826C151.008 182.496 129.455 188.594 106.5 188.594C83.5452 188.594 61.9921 182.495 43.3965 171.826C41.3286 170.639 39.9514 168.537 39.6899 166.167C38.0159 151 41.5857 135.445 49.8357 122.545Z" fill="white" fill-opacity="0.1"/>
<path d="M37.6111 113.943C37.4912 114.127 37.372 114.312 37.2535 114.497C27.6391 129.53 23.2392 147.433 24.5899 165.082C18.5347 164.163 12.6596 162.683 7.02051 160.697L5.87572 160.294C3.78735 159.559 2.32814 157.662 2.15251 155.455L2.05623 154.245C1.9775 153.256 1.9375 152.257 1.9375 151.25C1.9375 131.185 17.7617 114.817 37.6111 113.943Z" fill="white" fill-opacity="0.1"/>
<path d="M188.414 165.082C189.764 147.436 185.366 129.537 175.755 114.506C175.635 114.318 175.514 114.13 175.393 113.943C195.24 114.819 211.062 131.187 211.062 151.25C211.062 152.257 211.022 153.256 210.944 154.245L210.847 155.455C210.672 157.662 209.213 159.559 207.124 160.294L205.979 160.697C200.341 162.683 194.468 164.162 188.414 165.082Z" fill="white" fill-opacity="0.1"/>
<path d="M49.8357 122.545L48.572 121.737L49.8357 122.545ZM163.169 122.552L164.433 121.744L163.169 122.552ZM173.31 166.167L171.819 166.002L171.819 166.002L173.31 166.167ZM169.603 171.826L170.35 173.127L170.35 173.127L169.603 171.826ZM43.3965 171.826L44.143 170.525L44.143 170.525L43.3965 171.826ZM39.6899 166.167L38.1989 166.331L38.1989 166.331L39.6899 166.167ZM37.2535 114.497L35.9898 113.689L35.9898 113.689L37.2535 114.497ZM37.6111 113.943L38.8682 114.761L40.4599 112.316L37.5451 112.444L37.6111 113.943ZM24.5899 165.082L24.3646 166.565L26.2294 166.848L26.0855 164.968L24.5899 165.082ZM7.02051 160.697L7.51878 159.282L7.51877 159.282L7.02051 160.697ZM5.87572 160.294L5.37746 161.709L5.37746 161.709L5.87572 160.294ZM2.15251 155.455L0.657237 155.574L0.657237 155.574L2.15251 155.455ZM2.05623 154.245L0.560961 154.364L0.560961 154.364L2.05623 154.245ZM175.755 114.506L177.019 113.697L177.019 113.697L175.755 114.506ZM188.414 165.082L186.918 164.967L186.774 166.848L188.639 166.565L188.414 165.082ZM175.393 113.943L175.459 112.445L172.544 112.316L174.135 114.761L175.393 113.943ZM210.944 154.245L212.439 154.364L212.439 154.364L210.944 154.245ZM210.847 155.455L212.343 155.574L212.343 155.574L210.847 155.455ZM207.124 160.294L207.623 161.709L207.623 161.709L207.124 160.294ZM205.979 160.697L205.481 159.282L205.481 159.282L205.979 160.697ZM106.5 0.375C85.0472 0.375 67.6562 17.7659 67.6562 39.2188H70.6562C70.6562 19.4228 86.704 3.375 106.5 3.375V0.375ZM145.344 39.2188C145.344 17.7659 127.953 0.375 106.5 0.375V3.375C126.296 3.375 142.344 19.4228 142.344 39.2188H145.344ZM106.5 78.0625C127.953 78.0625 145.344 60.6716 145.344 39.2188H142.344C142.344 59.0147 126.296 75.0625 106.5 75.0625V78.0625ZM67.6562 39.2188C67.6562 60.6716 85.0472 78.0625 106.5 78.0625V75.0625C86.704 75.0625 70.6562 59.0147 70.6562 39.2188H67.6562ZM173.719 37.7188C156.391 37.7188 142.344 51.7658 142.344 69.0938H145.344C145.344 53.4227 158.048 40.7188 173.719 40.7188V37.7188ZM205.094 69.0938C205.094 51.7658 191.047 37.7188 173.719 37.7188V40.7188C189.39 40.7188 202.094 53.4227 202.094 69.0938H205.094ZM173.719 100.469C191.047 100.469 205.094 86.4217 205.094 69.0938H202.094C202.094 84.7648 189.39 97.4688 173.719 97.4688V100.469ZM142.344 69.0938C142.344 86.4217 156.391 100.469 173.719 100.469V97.4688C158.048 97.4688 145.344 84.7648 145.344 69.0938H142.344ZM39.2812 37.7188C21.9533 37.7188 7.90625 51.7658 7.90625 69.0938H10.9062C10.9062 53.4227 23.6102 40.7188 39.2812 40.7188V37.7188ZM70.6562 69.0938C70.6562 51.7658 56.6092 37.7188 39.2812 37.7188V40.7188C54.9523 40.7188 67.6562 53.4227 67.6562 69.0938H70.6562ZM39.2812 100.469C56.6092 100.469 70.6562 86.4217 70.6562 69.0938H67.6562C67.6562 84.7648 54.9523 97.4688 39.2812 97.4688V100.469ZM7.90625 69.0938C7.90625 86.4217 21.9533 100.469 39.2812 100.469V97.4688C23.6102 97.4688 10.9062 84.7648 10.9062 69.0938H7.90625ZM106.5 90C82.15 90 60.7657 102.671 48.572 121.737L51.0994 123.354C62.7653 105.113 83.2163 93 106.5 93V90ZM164.433 121.744C152.24 102.675 130.853 90 106.5 90V93C129.787 93 150.24 105.116 161.905 123.36L164.433 121.744ZM174.801 166.331C176.512 150.831 172.866 134.934 164.433 121.744L161.905 123.36C169.965 135.966 173.456 151.175 171.819 166.002L174.801 166.331ZM170.35 173.127C172.833 171.702 174.487 169.177 174.801 166.331L171.819 166.002C171.61 167.896 170.51 169.576 168.857 170.525L170.35 173.127ZM106.5 190.094C129.724 190.094 151.533 183.923 170.35 173.127L168.857 170.525C150.483 181.068 129.186 187.094 106.5 187.094V190.094ZM42.65 173.127C61.4667 183.923 83.2764 190.094 106.5 190.094V187.094C83.814 187.094 62.5175 181.068 44.143 170.525L42.65 173.127ZM38.1989 166.331C38.513 169.177 40.1668 171.702 42.65 173.127L44.143 170.525C42.4904 169.576 41.3898 167.896 41.1808 166.002L38.1989 166.331ZM48.572 121.737C40.1353 134.929 36.4878 150.828 38.1989 166.331L41.1808 166.002C39.544 151.172 43.0361 135.961 51.0994 123.354L48.572 121.737ZM38.5171 115.305C38.6335 115.123 38.7505 114.942 38.8682 114.761L36.354 113.125C36.2318 113.312 36.1105 113.5 35.9898 113.689L38.5171 115.305ZM26.0855 164.968C24.7593 147.638 29.0806 130.06 38.5172 115.305L35.9898 113.689C26.1976 129 21.719 147.227 23.0942 165.197L26.0855 164.968ZM6.52225 162.112C12.2492 164.129 18.2157 165.631 24.3646 166.565L24.8151 163.599C18.8538 162.694 13.07 161.237 7.51878 159.282L6.52225 162.112ZM5.37746 161.709L6.52225 162.112L7.51877 159.282L6.37398 158.879L5.37746 161.709ZM0.657237 155.574C0.879897 158.372 2.72985 160.776 5.37746 161.709L6.37399 158.879C4.84484 158.341 3.77638 156.952 3.64778 155.336L0.657237 155.574ZM0.560961 154.364L0.657237 155.574L3.64778 155.336L3.55151 154.126L0.560961 154.364ZM0.4375 151.25C0.4375 152.296 0.479084 153.335 0.560961 154.364L3.55151 154.126C3.47592 153.176 3.4375 152.217 3.4375 151.25H0.4375ZM37.5451 112.444C16.8973 113.353 0.4375 130.379 0.4375 151.25H3.4375C3.4375 131.992 18.6261 116.28 37.677 115.441L37.5451 112.444ZM174.492 115.314C183.925 130.067 188.244 147.641 186.918 164.967L189.909 165.196C191.284 147.23 186.808 129.007 177.019 113.697L174.492 115.314ZM174.135 114.761C174.255 114.945 174.374 115.129 174.492 115.314L177.019 113.697C176.897 113.506 176.774 113.315 176.65 113.125L174.135 114.761ZM212.562 151.25C212.562 130.38 196.105 113.355 175.459 112.445L175.326 115.442C194.376 116.282 209.562 131.993 209.562 151.25H212.562ZM212.439 154.364C212.521 153.335 212.562 152.297 212.562 151.25H209.562C209.562 152.217 209.524 153.176 209.448 154.126L212.439 154.364ZM212.343 155.574L212.439 154.364L209.448 154.126L209.352 155.336L212.343 155.574ZM207.623 161.709C210.27 160.776 212.12 158.372 212.343 155.574L209.352 155.336C209.224 156.952 208.155 158.341 206.626 158.879L207.623 161.709ZM206.478 162.112L207.623 161.709L206.626 158.879L205.481 159.282L206.478 162.112ZM188.639 166.565C194.787 165.631 200.752 164.128 206.478 162.112L205.481 159.282C199.931 161.237 194.148 162.693 188.188 163.599L188.639 166.565Z" fill="white" fill-opacity="0.5"/>
</svg>
