<svg width="163" height="221" viewBox="0 0 163 221" fill="none" xmlns="http://www.w3.org/2000/svg">
<path d="M81.5 2.21875C37.6451 2.21875 2.09375 37.7701 2.09375 81.625C2.09375 110.989 18.0358 136.62 41.7022 150.352C48.2997 154.18 52.4311 160.053 52.6181 165.965C52.7212 169.225 54.9982 172.011 58.1729 172.762C61.5549 173.561 65.0013 174.19 68.5023 174.64C71.617 175.04 74.283 172.545 74.283 169.405V124.542C71.2099 124.202 68.1985 123.648 65.2649 122.893C61.4039 121.899 59.0796 117.963 60.0733 114.102C61.0671 110.241 65.0026 107.917 68.8636 108.911C72.8947 109.948 77.128 110.502 81.5017 110.502C85.8755 110.502 90.1088 109.948 94.1399 108.911C98.0009 107.917 101.936 110.241 102.93 114.102C103.924 117.963 101.6 121.899 97.7386 122.893C94.805 123.648 91.7936 124.202 88.7205 124.542V169.404C88.7205 172.545 91.3866 175.04 94.5014 174.639C98.0011 174.19 101.446 173.561 104.827 172.762C108.002 172.011 110.279 169.225 110.382 165.965C110.569 160.053 114.7 154.18 121.298 150.352C144.964 136.62 160.906 110.989 160.906 81.625C160.906 37.7701 125.355 2.21875 81.5 2.21875Z" fill="white" fill-opacity="0.1"/>
<path fill-rule="evenodd" clip-rule="evenodd" d="M52.7515 186.534C53.4945 182.617 57.2722 180.044 61.1891 180.787C67.7627 182.034 74.5517 182.688 81.5 182.688C88.4484 182.688 95.2374 182.034 101.811 180.787C105.728 180.044 109.506 182.617 110.249 186.534C110.992 190.451 108.419 194.229 104.502 194.972C97.0455 196.386 89.3557 197.125 81.5 197.125C73.6443 197.125 65.9545 196.386 58.4984 194.972C54.5814 194.229 52.0085 190.451 52.7515 186.534Z" fill="white" fill-opacity="0.1"/>
<path fill-rule="evenodd" clip-rule="evenodd" d="M59.8829 210.061C60.2977 206.096 63.8484 203.217 67.8136 203.632C72.3092 204.102 76.8752 204.344 81.5 204.344C86.1248 204.344 90.6908 204.102 95.1864 203.632C99.1516 203.217 102.702 206.096 103.117 210.061C103.532 214.026 100.654 217.577 96.6886 217.991C91.6948 218.514 86.6274 218.781 81.5 218.781C76.3726 218.781 71.3052 218.514 66.3114 217.991C62.3463 217.577 59.4681 214.026 59.8829 210.061Z" fill="white" fill-opacity="0.1"/>
<path d="M41.7022 150.352L40.9494 151.649L40.9494 151.649L41.7022 150.352ZM52.6181 165.965L51.1188 166.012L51.1188 166.012L52.6181 165.965ZM58.1729 172.762L57.8278 174.221L57.8279 174.221L58.1729 172.762ZM74.283 124.542H75.783C75.783 123.778 75.2079 123.136 74.4479 123.051L74.283 124.542ZM65.2649 122.893L64.891 124.345L64.891 124.345L65.2649 122.893ZM60.0733 114.102L61.526 114.476L61.526 114.476L60.0733 114.102ZM68.8636 108.911L68.4897 110.363L68.4897 110.363L68.8636 108.911ZM94.1399 108.911L94.5138 110.363L94.5138 110.363L94.1399 108.911ZM102.93 114.102L101.477 114.476L101.477 114.476L102.93 114.102ZM97.7386 122.893L98.1125 124.345L98.1125 124.345L97.7386 122.893ZM88.7205 124.542L88.5556 123.051C87.7956 123.136 87.2205 123.778 87.2205 124.542H88.7205ZM104.827 172.762L105.172 174.221L105.172 174.221L104.827 172.762ZM110.382 165.965L108.883 165.917L108.883 165.917L110.382 165.965ZM121.298 150.352L120.545 149.054L120.545 149.054L121.298 150.352ZM94.5014 174.639L94.6926 176.127L94.5014 174.639ZM68.5023 174.64L68.6934 173.152L68.5023 174.64ZM61.1891 180.787L60.9096 182.261L61.1891 180.787ZM52.7515 186.534L54.2252 186.814L52.7515 186.534ZM101.811 180.787L101.531 179.314L101.531 179.314L101.811 180.787ZM110.249 186.534L111.722 186.255L110.249 186.534ZM104.502 194.972L104.781 196.446L104.781 196.446L104.502 194.972ZM58.4984 194.972L58.7779 193.498L58.7779 193.498L58.4984 194.972ZM67.8136 203.632L67.6575 205.124L67.6575 205.124L67.8136 203.632ZM59.8829 210.061L61.3748 210.217L61.3748 210.217L59.8829 210.061ZM95.1864 203.632L95.3425 205.124L95.3425 205.124L95.1864 203.632ZM96.6886 217.991L96.5325 216.499L96.5325 216.499L96.6886 217.991ZM66.3114 217.991L66.4675 216.499L66.3114 217.991ZM3.59375 81.625C3.59375 38.5986 38.4736 3.71875 81.5 3.71875V0.71875C36.8167 0.71875 0.59375 36.9417 0.59375 81.625H3.59375ZM42.4549 149.054C19.2319 135.58 3.59375 110.432 3.59375 81.625H0.59375C0.59375 111.545 16.8397 137.661 40.9494 151.649L42.4549 149.054ZM54.1173 165.917C53.9091 159.333 49.3475 153.054 42.4549 149.054L40.9494 151.649C47.2519 155.306 50.9531 160.773 51.1188 166.012L54.1173 165.917ZM58.5179 171.302C56.0028 170.707 54.199 168.5 54.1173 165.917L51.1188 166.012C51.2434 169.95 53.9935 173.315 57.8278 174.221L58.5179 171.302ZM68.6934 173.152C65.2444 172.709 61.8494 172.089 58.5179 171.302L57.8279 174.221C61.2605 175.033 64.7582 175.671 68.3111 176.128L68.6934 173.152ZM75.783 169.405V124.542H72.783V169.405H75.783ZM74.4479 123.051C71.4457 122.719 68.5041 122.177 65.6388 121.44L64.891 124.345C67.8929 125.118 70.9741 125.685 74.1181 126.033L74.4479 123.051ZM65.6388 121.44C62.5801 120.653 60.7387 117.535 61.526 114.476L58.6207 113.728C57.4204 118.392 60.2278 123.145 64.891 124.345L65.6388 121.44ZM61.526 114.476C62.3132 111.418 65.431 109.576 68.4897 110.363L69.2375 107.458C64.5742 106.258 59.8209 109.065 58.6207 113.729L61.526 114.476ZM68.4897 110.363C72.642 111.432 77.0009 112.002 81.5017 112.002V109.002C77.255 109.002 73.1473 108.464 69.2375 107.458L68.4897 110.363ZM81.5017 112.002C86.0026 112.002 90.3615 111.432 94.5138 110.363L93.766 107.458C89.8562 108.464 85.7485 109.002 81.5017 109.002V112.002ZM94.5138 110.363C97.5725 109.576 100.69 111.418 101.477 114.476L104.383 113.729C103.183 109.065 98.4293 106.258 93.766 107.458L94.5138 110.363ZM101.477 114.476C102.265 117.535 100.423 120.653 97.3647 121.44L98.1125 124.345C102.776 123.145 105.583 118.392 104.383 113.728L101.477 114.476ZM97.3647 121.44C94.4994 122.177 91.5578 122.719 88.5556 123.051L88.8854 126.033C92.0294 125.685 95.1106 125.118 98.1125 124.345L97.3647 121.44ZM87.2205 124.542V169.404H90.2205V124.542H87.2205ZM104.482 171.302C101.152 172.089 97.7579 172.709 94.3102 173.152L94.6926 176.127C98.2442 175.671 101.741 175.032 105.172 174.221L104.482 171.302ZM108.883 165.917C108.801 168.5 106.997 170.707 104.482 171.302L105.172 174.221C109.007 173.315 111.757 169.95 111.881 166.012L108.883 165.917ZM120.545 149.054C113.653 153.054 109.091 159.333 108.883 165.917L111.881 166.012C112.047 160.773 115.748 155.306 122.051 151.649L120.545 149.054ZM159.406 81.625C159.406 110.432 143.768 135.58 120.545 149.054L122.051 151.649C146.16 137.661 162.406 111.545 162.406 81.625H159.406ZM81.5 3.71875C124.526 3.71875 159.406 38.5986 159.406 81.625H162.406C162.406 36.9417 126.183 0.71875 81.5 0.71875V3.71875ZM87.2205 169.404C87.2205 173.389 90.6224 176.65 94.6926 176.127L94.3102 173.152C92.1508 173.429 90.2205 171.7 90.2205 169.404H87.2205ZM68.3111 176.128C72.3812 176.651 75.783 173.389 75.783 169.405H72.783C72.783 171.701 70.8528 173.43 68.6934 173.152L68.3111 176.128ZM61.4687 179.314C56.7378 178.416 52.1752 181.524 51.2778 186.255L54.2252 186.814C54.8138 183.711 57.8065 181.672 60.9096 182.261L61.4687 179.314ZM81.5 181.188C74.6459 181.188 67.9505 180.543 61.4687 179.314L60.9096 182.261C67.5748 183.525 74.4574 184.188 81.5 184.188V181.188ZM101.531 179.314C95.0495 180.543 88.3541 181.188 81.5 181.188V184.188C88.5426 184.188 95.4252 183.525 102.09 182.261L101.531 179.314ZM111.722 186.255C110.825 181.524 106.262 178.416 101.531 179.314L102.09 182.261C105.194 181.672 108.186 183.711 108.775 186.814L111.722 186.255ZM104.781 196.446C109.512 195.548 112.62 190.985 111.722 186.255L108.775 186.814C109.363 189.917 107.325 192.909 104.222 193.498L104.781 196.446ZM81.5 198.625C89.45 198.625 97.2334 197.877 104.781 196.446L104.222 193.498C96.8577 194.895 89.2615 195.625 81.5 195.625V198.625ZM58.2188 196.446C65.7667 197.877 73.55 198.625 81.5 198.625V195.625C73.7386 195.625 66.1424 194.895 58.7779 193.498L58.2188 196.446ZM51.2778 186.255C50.3803 190.985 53.488 195.548 58.2188 196.446L58.7779 193.498C55.6749 192.909 53.6366 189.917 54.2252 186.814L51.2778 186.255ZM67.9696 202.14C63.1805 201.639 58.8921 205.116 58.3911 209.905L61.3748 210.217C61.7034 207.076 64.5163 204.795 67.6575 205.124L67.9696 202.14ZM81.5 202.844C76.9274 202.844 72.4135 202.605 67.9696 202.14L67.6575 205.124C72.2049 205.6 76.823 205.844 81.5 205.844V202.844ZM95.0304 202.14C90.5865 202.605 86.0726 202.844 81.5 202.844V205.844C86.177 205.844 90.7951 205.6 95.3425 205.124L95.0304 202.14ZM104.609 209.905C104.108 205.116 99.8195 201.639 95.0304 202.14L95.3425 205.124C98.4837 204.795 101.297 207.076 101.625 210.217L104.609 209.905ZM96.8446 219.483C101.634 218.982 105.11 214.694 104.609 209.905L101.625 210.217C101.954 213.358 99.6737 216.171 96.5325 216.499L96.8446 219.483ZM81.5 220.281C86.6796 220.281 91.7991 220.011 96.8446 219.483L96.5325 216.499C91.5905 217.016 86.5752 217.281 81.5 217.281V220.281ZM66.1554 219.483C71.2009 220.011 76.3204 220.281 81.5 220.281V217.281C76.4248 217.281 71.4095 217.016 66.4675 216.499L66.1554 219.483ZM58.3911 209.905C57.8901 214.694 61.3663 218.982 66.1554 219.483L66.4675 216.499C63.3263 216.171 61.0462 213.358 61.3748 210.217L58.3911 209.905Z" fill="white" fill-opacity="0.5"/>
</svg>
