<svg width="215" height="209" viewBox="0 0 215 209" fill="none" xmlns="http://www.w3.org/2000/svg">
<path fill-rule="evenodd" clip-rule="evenodd" d="M107.5 1.64227C49.3893 1.64227 2.28125 47.5106 2.28125 104.092C2.28125 160.674 49.3893 206.542 107.5 206.542C165.611 206.542 212.719 160.674 212.719 104.092C212.719 47.5106 165.611 1.64227 107.5 1.64227ZM115.594 41.0461C115.594 36.6936 111.97 33.1653 107.5 33.1653C103.03 33.1653 99.4062 36.6936 99.4062 41.0461V104.092C99.4062 108.445 103.03 111.973 107.5 111.973H156.062C160.533 111.973 164.156 108.445 164.156 104.092C164.156 99.7397 160.533 96.2113 156.062 96.2113H115.594V41.0461Z" fill="white" fill-opacity="0.1" stroke="white" stroke-opacity="0.5" stroke-width="3"/>
</svg>
