<svg id="Layer_1" data-name="Layer 1" xmlns="http://www.w3.org/2000/svg" width="318.8" height="104.61" viewBox="0 0 318.8 104.61"><defs><style>.cls-1{fill:#3d3d3d;}.cls-2{fill:#2a4eeb;}</style></defs><title>zeroteam-logo</title><polygon class="cls-1" points="277.8 0 234.8 24.83 234.8 45.61 277.8 20.79 277.8 0"/><polygon class="cls-1" points="318.8 59 275.8 83.83 275.8 104.61 318.8 79.78 318.8 59"/><polygon class="cls-2" points="318.8 17.68 234.8 66.18 234.8 86.96 318.8 38.46 318.8 17.68"/><path class="cls-2" d="M24.2,81.33c0-2.33,0-4,.07-5a9.72,9.72,0,0,1,2.52-6.54,7.87,7.87,0,0,1,6-2.56,15.83,15.83,0,0,1,1.68.14A30.67,30.67,0,0,1,41,57.89c2.47-2.34,5-3.5,7.63-3.5a9.29,9.29,0,0,1,7,2.8,22.26,22.26,0,0,1,4.59,8.19A38.59,38.59,0,0,0,63,72.1,3.17,3.17,0,0,0,65.64,74h.42l.56,5.25-.56,5.19h-.42a7.5,7.5,0,0,1-4-1.16A10,10,0,0,1,58.43,80a8,8,0,0,1-1.37,2.21,6.75,6.75,0,0,1-1.92,1.58,6.92,6.92,0,0,1-3.64,1,20.3,20.3,0,0,1-6.93-1.65,112.61,112.61,0,0,1-11.2-5.29,1.17,1.17,0,0,0-.42-.14c-.33,0-.49.22-.49.64q-.15,8.33,1.61,27.22c0,.94.11,1.78.21,2.53a15.9,15.9,0,0,1,.14,1.82l-8.61,2Q24.19,92,24.2,81.33Zm30.24-7a17.5,17.5,0,0,0-.7-4.65,11.51,11.51,0,0,0-2.1-4.2,4.16,4.16,0,0,0-3.29-1.71,4.66,4.66,0,0,0-3.22,1.75,25.47,25.47,0,0,0-3.64,5.31,34.48,34.48,0,0,0,6.09,3.3,22.09,22.09,0,0,0,4.58,1.39,6.82,6.82,0,0,0,2.21.15A10.16,10.16,0,0,0,54.44,74.33Z" transform="translate(-24.2 -16.91)"/><path class="cls-2" d="M65.36,90.29l5.81,5.88c-1.26,1.31-2.55,2.6-3.85,3.85l-2,2L62.49,99l-2.94-2.87Zm0-16.31h.49a48.74,48.74,0,0,0,9.38-.66c2-.44,3.4-1.11,4.06-2a6.45,6.45,0,0,0,1-3.85,51.69,51.69,0,0,0-.7-6.65l7.21-1.41a62,62,0,0,1,1,11.56,3.64,3.64,0,0,0,1.54,2.1,6.21,6.21,0,0,0,3.64.9h.42l.56,5.25-.56,5.19h-.42a10.65,10.65,0,0,1-6-1.79,12.87,12.87,0,0,1-4.27-4.51l1.75.34a10.45,10.45,0,0,1-6.13,4.59q-4.23,1.36-12.49,1.37h-.49ZM77.61,90.29l5.81,5.88c-1.26,1.31-2.55,2.6-3.85,3.85l-2,2L74.74,99,71.8,96.17Z" transform="translate(-24.2 -16.91)"/><path class="cls-2" d="M92.66,74H96c4.62,0,7.88-.39,9.8-1.19s2.87-2,2.87-3.63a26.77,26.77,0,0,0-1.61-5.92c-1-2.92-1.78-4.86-2.24-5.84l7.42-4.07a53.73,53.73,0,0,1,2.8,7.81,31.47,31.47,0,0,1,1.4,8.51q-.08,7.14-4.83,10.95T97.56,84.42h-4.9Zm6.51-35.06L105,44.79c-1.26,1.31-2.55,2.6-3.85,3.86l-2,2L96.3,47.67l-2.94-2.88Zm12.25,0,5.81,5.87c-1.26,1.31-2.55,2.6-3.85,3.86l-2,2-2.87-2.93-2.94-2.88Z" transform="translate(-24.2 -16.91)"/><path class="cls-1" d="M139,89.6q5.38-3.64,5.39-9.39a32,32,0,0,0-1.19-8.08,18.32,18.32,0,0,0-3.12-6.47,5.67,5.67,0,0,0-4.44-2.52,3.92,3.92,0,0,0-2.63,1,7.75,7.75,0,0,0-2,2.58,6.73,6.73,0,0,0-.73,2.88,3.11,3.11,0,0,0,.56,1.89,6.87,6.87,0,0,0,3.88,2.13,25.6,25.6,0,0,0,6.41.74,31.7,31.7,0,0,0,5.25-.43v9.73a29.68,29.68,0,0,1-7.07.85,22.53,22.53,0,0,1-9.17-1.79,10.89,10.89,0,0,1-5.74-5.35,14.2,14.2,0,0,1-1.26-6,20.72,20.72,0,0,1,1.75-8.23,17.76,17.76,0,0,1,4.83-6.72,10.13,10.13,0,0,1,6.72-2.62,10.32,10.32,0,0,1,7.63,3.63A25.5,25.5,0,0,1,149.5,67a38.74,38.74,0,0,1,2,12.25,21.9,21.9,0,0,1-7.07,16.52q-7.08,6.72-19.53,9.11l-3.22-9Q133.61,93.23,139,89.6Z" transform="translate(-24.2 -16.91)"/><path class="cls-1" d="M160.7,91.66a30.43,30.43,0,0,0,6.05-4.93q2.2-2.46,2.21-4.21,0-2.86-3.71-15.6l-.35-1.4,7.84-3.08a68.25,68.25,0,0,1,2.66,10.32,56.63,56.63,0,0,1,1,9.76q0,6.87-5.39,12.71a40.66,40.66,0,0,1-14.49,9.63L152.23,96A52.28,52.28,0,0,0,160.7,91.66Zm12-10.74a28.25,28.25,0,0,1-4.9-9.8l6.3-3.85a12.36,12.36,0,0,0,2.38,5.21,5.09,5.09,0,0,0,3.92,1.5h.63l.56,5.25-.56,5.19h-.63A9.57,9.57,0,0,1,172.74,80.92Z" transform="translate(-24.2 -16.91)"/><path class="cls-1" d="M180.58,84.42,180,79.23l.56-5.25H184V84.42Zm5.95,6,5.81,5.88-3.85,3.85-2,2-2.94-2.94-2.87-2.87ZM183.1,74h3.36c4.62,0,7.88-.39,9.8-1.19s2.87-2,2.87-3.63a26.77,26.77,0,0,0-1.61-5.92c-1-2.92-1.78-4.86-2.24-5.84l7.42-4.07a53.73,53.73,0,0,1,2.8,7.81,31.47,31.47,0,0,1,1.4,8.51q-.08,7.14-4.83,10.95T188,84.42h-4.9Zm15.68,16.39,5.81,5.88-3.85,3.85-2,2-2.94-2.94L193,96.25Z" transform="translate(-24.2 -16.91)"/><path class="cls-1" d="M214.46,91.66a30.43,30.43,0,0,0,6-4.93q2.2-2.46,2.21-4.21,0-2.86-3.71-15.6l-.35-1.4,7.84-3.08a68.25,68.25,0,0,1,2.66,10.32,56.63,56.63,0,0,1,1,9.76q0,6.87-5.39,12.71a40.66,40.66,0,0,1-14.49,9.63L206,96A52.28,52.28,0,0,0,214.46,91.66Zm.42-42.1,6.51-6.44,6.44,6.44-2.17,2.17c-1.4,1.44-2.83,2.87-4.27,4.27Z" transform="translate(-24.2 -16.91)"/></svg>