<svg width="182" height="167" viewBox="0 0 182 167" fill="none" xmlns="http://www.w3.org/2000/svg">
<path fill-rule="evenodd" clip-rule="evenodd" d="M91 42.1562C91 19.3227 111.371 0.8125 136.5 0.8125C141.086 0.8125 145.525 1.43083 149.714 2.58474C151.901 3.18687 153.579 4.78772 154.134 6.8013C154.689 8.81489 154.041 10.9456 152.425 12.4134L123.663 38.5482C124.198 42.2934 126.047 45.9033 129.211 48.7791C132.376 51.6548 136.349 53.3346 140.471 53.8205L169.233 27.6857C170.848 26.2179 173.193 25.6284 175.409 26.133C177.625 26.6376 179.387 28.1623 180.05 30.1489C181.32 33.9561 182 37.9893 182 42.1562C182 64.9898 161.629 83.5 136.5 83.5C135.196 83.5 133.903 83.45 132.624 83.3517C123.807 82.6746 116.426 84.1429 112.618 88.3441L50.6417 156.727C45.2127 162.717 37.12 166.188 28.5799 166.188C12.7957 166.188 0 154.561 0 140.218C0 132.458 3.8191 125.105 10.4115 120.172L85.6689 63.8564C90.2925 60.3965 91.9084 53.6894 91.1632 45.6786C91.055 44.5162 91 43.3414 91 42.1562ZM22.6827 139.61C22.6827 136.348 25.5928 133.703 29.1827 133.703H29.2477C32.8375 133.703 35.7477 136.348 35.7477 139.61V139.669C35.7477 142.931 32.8375 145.575 29.2477 145.575H29.1827C25.5928 145.575 22.6827 142.931 22.6827 139.669V139.61Z" fill="white" fill-opacity="0.1"/>
<path d="M74.3251 57.0425L55.2501 39.7099V27.3908C55.2501 25.3161 54.0522 23.3936 52.0944 22.3262L19.5944 4.60744C17.0368 3.21306 13.763 3.57926 11.6539 5.49565L5.15395 11.4019C3.0449 13.3183 2.64188 16.293 4.17644 18.617L23.6764 48.1482C24.8511 49.9272 26.9669 51.0158 29.2501 51.0158H42.8078L60.6786 67.2542L74.3251 57.0425Z" fill="white" fill-opacity="0.1"/>
<path fill-rule="evenodd" clip-rule="evenodd" d="M95.8179 125.463L132.068 158.402C143.491 168.782 162.011 168.782 173.434 158.402C184.857 148.023 184.857 131.195 173.434 120.815L144.785 94.7833C142.079 95.1319 139.313 95.3122 136.501 95.3122C134.831 95.3122 133.172 95.2481 131.529 95.1219C128.112 94.8594 125.614 95.0733 124.01 95.4516C123.113 95.6634 122.698 95.8736 122.563 95.9538L95.8179 125.463ZM125.405 114.761C127.943 112.455 132.059 112.455 134.597 114.761L150.847 129.527C153.385 131.833 153.385 135.573 150.847 137.879C148.309 140.186 144.193 140.186 141.655 137.879L125.405 123.114C122.866 120.807 122.866 117.068 125.405 114.761Z" fill="white" fill-opacity="0.1"/>
<path d="M133.077 157.292L97.9353 125.361L123.481 97.175C123.634 97.1132 123.911 97.0163 124.355 96.9116C125.766 96.5787 128.101 96.363 131.415 96.6175C133.096 96.7466 134.792 96.8122 136.501 96.8122C139.138 96.8122 141.737 96.6571 144.286 96.3563L172.425 121.925C183.193 131.71 183.193 147.508 172.425 157.292C161.574 167.152 143.928 167.152 133.077 157.292ZM122.654 37.438L122.066 37.9728L122.178 38.7602C122.763 42.858 124.785 46.7833 128.203 49.8892C131.617 52.9917 135.888 54.7907 140.295 55.3101L140.974 55.3901L141.48 54.9306L170.242 28.7959C171.477 27.6735 173.315 27.1944 175.076 27.5956C176.834 27.9958 178.146 29.183 178.627 30.6235C179.847 34.2807 180.5 38.1538 180.5 42.1562C180.5 64.0294 160.939 82 136.5 82C135.234 82 133.979 81.9515 132.738 81.8561C123.835 81.1723 115.812 82.5863 111.507 87.3368L49.5302 155.72C44.4032 161.377 36.7236 164.688 28.5799 164.688C13.4857 164.688 1.5 153.6 1.5 140.218C1.5 132.964 5.06933 126.043 11.3102 121.373L86.5676 65.0574C91.8325 61.1176 93.4171 53.7132 92.6567 45.5397C92.5529 44.4234 92.5 43.2949 92.5 42.1562C92.5 20.2831 112.061 2.3125 136.5 2.3125C140.951 2.3125 145.256 2.91259 149.316 4.0309C151.046 4.5073 152.287 5.74643 152.688 7.20012C153.085 8.63825 152.637 10.1942 151.416 11.3033L122.654 37.438ZM53.7501 39.7099V40.3737L54.2414 40.8201L71.9712 56.9304L60.7711 65.3115L43.8165 49.9056L43.3875 49.5158H42.8078H29.2501C27.4282 49.5158 25.8025 48.6459 24.9282 47.3217L5.42817 17.7905C4.31536 16.1052 4.58172 13.9486 6.16269 12.5121L12.6627 6.60581C14.2848 5.13187 16.8627 4.82661 18.8764 5.92442L51.3764 23.6432C52.8967 24.472 53.7501 25.914 53.7501 27.3908V39.7099ZM29.1827 132.203C24.9029 132.203 21.1827 135.387 21.1827 139.61V139.669C21.1827 143.891 24.9029 147.075 29.1827 147.075H29.2477C33.5275 147.075 37.2477 143.891 37.2477 139.669V139.61C37.2477 135.387 33.5275 132.203 29.2477 132.203H29.1827ZM135.606 113.651C132.495 110.825 127.506 110.825 124.396 113.651C121.202 116.553 121.202 121.322 124.396 124.224L140.646 138.99C143.756 141.816 148.745 141.816 151.856 138.99C155.049 136.088 155.049 131.318 151.856 128.417L135.606 113.651Z" stroke="white" stroke-opacity="0.5" stroke-width="3"/>
</svg>
